<svg version="1.1" xmlns="http://www.w3.org/2000/svg" xmlns:xlink="http://www.w3.org/1999/xlink" 
	 width="512" height="512" viewBox="0 0 512 512">
<!-- Circular background - light theme with rounded corners -->
<rect x="0" y="0" width="512" height="512" rx="256" ry="256" fill="#ffffff" />
<!-- Logo paths with dark fill for better contrast on light background -->
<!-- Transform: move to center, scale up, then move logo center to origin and back -->
<g transform="translate(256, 256) scale(1.1) translate(-256, -256)">
<path fill="#000000" opacity="0.95" stroke="none" 
	d="
M185.986938,88.707092 
	C199.254959,92.396751 204.307709,98.500175 207.850739,115.019958 
	C212.631943,112.623672 217.218323,110.045219 222.020340,107.964485 
	C249.704025,95.969017 275.314270,100.786377 299.262817,117.888123 
	C311.306152,126.488327 321.345032,137.107559 329.913116,149.141754 
	C330.769897,150.345169 331.825500,151.473572 331.649017,153.280838 
	C330.163818,154.837021 328.267639,154.050293 326.590759,153.819092 
	C309.909332,151.519257 293.122986,150.364868 276.335388,149.307495 
	C272.474182,149.064316 269.747314,147.919144 267.707214,144.541870 
	C265.285736,140.533203 262.023682,137.159897 258.475952,134.089294 
	C251.700302,128.224854 243.948425,128.785477 238.416443,135.814743 
	C230.700638,145.618912 227.035217,157.336380 224.514969,169.194717 
	C222.970215,176.463013 219.120438,179.936172 212.921768,183.176804 
	C184.997070,197.775574 169.245972,221.293060 164.233475,252.188431 
	C163.623383,255.948807 163.399567,259.793427 163.294632,263.607178 
	C163.214676,266.512878 162.002823,267.716431 159.142273,268.024689 
	C147.667786,269.261322 146.633316,268.392242 146.981796,257.158325 
	C147.881699,228.145798 152.287231,199.833221 163.591064,172.860687 
	C167.398163,163.776413 171.896393,155.078094 177.173874,146.768356 
	C178.213547,145.131302 179.822906,143.746628 179.828705,140.855988 
	C168.957840,139.056793 160.456970,133.684952 156.307266,122.836975 
	C154.052124,116.941681 154.387451,111.056236 156.473862,105.243294 
	C160.712646,93.433632 173.547943,86.161385 185.986938,88.707092 
z"/>
<path fill="#000000" opacity="0.95" stroke="none" 
	d="
M325.123535,164.767944 
	C342.093475,169.527374 357.515076,176.827896 372.272247,185.735870 
	C379.536469,164.032501 385.938080,158.162674 401.462830,158.711594 
	C412.644989,159.106979 422.903076,167.222122 424.995728,178.992737 
	C428.369202,197.967972 417.473572,207.234467 400.034821,211.441711 
	C402.684052,216.056427 405.079437,219.995483 407.253387,224.053162 
	C422.910736,253.277496 419.499084,281.012177 400.660400,307.531830 
	C391.986115,319.742828 381.297852,329.895752 369.123199,338.533722 
	C367.951447,339.365143 366.830750,340.518433 364.786407,340.147461 
	C363.601715,336.655334 364.724670,333.040741 365.155121,329.597900 
	C367.015045,314.722504 368.212769,299.799133 368.910645,284.836975 
	C369.097931,280.821564 370.272491,277.911346 373.972229,275.891754 
	C378.240265,273.561981 381.792175,270.222107 384.868256,266.448944 
	C390.448364,259.604370 389.589386,252.300018 382.606903,246.914032 
	C372.879425,239.410690 361.445892,235.755768 349.779175,232.870697 
	C345.449799,231.800064 343.383423,229.628677 341.347748,225.643341 
	C324.548706,192.755310 297.842560,174.304337 260.667053,172.059204 
	C250.002274,171.415131 249.452942,171.188187 250.034592,160.632462 
	C250.226898,157.142395 251.450119,155.683578 255.153732,155.633392 
	C278.790863,155.313217 301.986053,158.204498 325.123535,164.767944 
z"/>
<path fill="#000000" opacity="0.95" stroke="none" 
	d="
M148.225464,347.816376 
	C143.832230,345.148743 139.747391,342.679779 134.970169,339.792328 
	C134.265152,350.222626 130.101364,358.062225 121.748772,363.249573 
	C116.805099,366.319824 111.354683,367.598694 105.487831,366.842499 
	C93.123985,365.248840 83.717499,355.373718 82.603592,342.756042 
	C81.379013,328.884796 89.484184,320.045654 109.440292,313.832794 
	C107.724915,310.591309 106.050301,307.407562 104.358543,304.232971 
	C89.483452,276.319794 92.043922,249.504028 109.332191,223.553970 
	C118.040787,210.482178 129.379990,200.020020 141.716248,190.533340 
	C143.090912,189.476196 144.463364,187.965363 146.641434,188.653580 
	C147.783005,190.504623 147.400009,192.549194 147.121307,194.465088 
	C144.675766,211.275986 143.761459,228.229736 142.433899,245.140564 
	C142.182755,248.339752 141.142502,250.385590 138.427979,251.964066 
	C134.514908,254.239532 131.252579,257.345398 128.162323,260.645905 
	C121.052849,268.239105 121.635246,275.976898 130.002502,282.329987 
	C138.393707,288.701233 148.183914,292.222656 158.230255,294.537872 
	C165.402649,296.190796 169.531799,299.447449 172.992401,306.273132 
	C189.956024,339.732452 217.617722,357.238586 255.191071,358.817719 
	C261.289825,359.074036 261.136780,358.970642 261.345032,366.047485 
	C261.473663,370.417847 261.112366,373.252716 255.389084,373.152496 
	C217.926102,372.496552 181.790283,366.444000 148.225464,347.816376 
z"/>
<path fill="#000000" opacity="0.95" stroke="none" 
	d="
M357.256775,418.994080 
	C350.772369,429.973328 340.837860,434.916077 329.454956,433.099152 
	C320.384613,431.651367 316.277710,427.737885 307.131134,411.795837 
	C304.920593,411.457581 303.486267,413.089203 301.838196,414.080170 
	C287.087219,422.949432 271.394379,428.529449 253.919525,426.952179 
	C236.077072,425.341736 220.724976,417.671051 207.024719,406.456696 
	C197.434097,398.606232 189.115967,389.535492 181.892929,379.471161 
	C180.886948,378.069458 179.215591,376.828735 180.052231,374.321014 
	C189.221695,375.198639 198.437973,375.999146 207.634399,376.984894 
	C216.077805,377.889893 224.521118,378.773041 233.017303,378.844208 
	C238.355621,378.888947 242.521912,380.290070 245.293228,385.522552 
	C247.622925,389.921234 251.255554,393.546021 255.642471,396.174713 
	C262.045990,400.011810 266.520599,399.438477 271.747253,394.083008 
	C277.603516,388.082458 280.829620,380.567383 283.506866,372.830139 
	C285.301300,367.644135 286.694336,362.311066 288.077301,356.994446 
	C288.760468,354.368225 290.067169,352.829285 292.642059,351.634827 
	C328.294281,335.096344 347.953888,307.537628 350.005127,267.915375 
	C350.126282,265.575256 348.875549,262.187042 351.787811,261.202850 
	C355.371063,259.991943 359.374329,260.334351 363.133728,261.133545 
	C364.686371,261.463623 364.572449,263.172058 364.585022,264.509979 
	C364.959381,304.314667 357.830566,342.323761 337.617249,377.202606 
	C337.118866,378.062592 336.638947,378.937592 336.227325,379.840668 
	C336.112366,380.092865 336.273285,380.470764 336.313965,380.790344 
	C357.537933,388.483337 364.581055,401.125397 357.256775,418.994080 
z"/>
<path fill="#000000" opacity="0.95" stroke="none" 
	d="
M316.082611,238.002289 
	C316.090759,255.648621 316.143097,272.795563 316.093811,289.942230 
	C316.054443,303.636719 310.572144,309.095917 296.978546,309.098724 
	C271.008575,309.104065 245.038589,309.092560 219.068634,309.064087 
	C205.522964,309.049225 199.823059,303.423035 199.805847,290.001709 
	C199.777893,268.193634 199.777863,246.385452 199.817291,224.577408 
	C199.837738,213.269943 206.097122,206.914413 217.480072,206.881638 
	C244.282181,206.804459 271.084747,206.830627 297.886993,206.879807 
	C309.940430,206.901917 315.477478,212.298096 316.023010,224.519440 
	C316.215851,228.839493 316.072662,233.174561 316.082611,238.002289 
M236.882874,265.136658 
	C241.140778,267.053955 241.927261,272.475525 246.602829,274.811737 
	C251.721512,268.190430 256.819702,261.674927 261.829712,255.092316 
	C266.683655,248.714752 270.779785,248.738739 275.673462,255.157562 
	C281.930145,263.364166 288.191406,271.569733 294.609161,279.649902 
	C297.306793,283.046295 299.407410,287.042358 303.558136,289.964142 
	C303.657471,287.983215 303.779449,286.673065 303.780426,285.362823 
	C303.795135,265.868286 303.805145,246.373703 303.790375,226.879166 
	C303.784943,219.717606 303.324158,219.228653 296.099854,219.224258 
	C270.440338,219.208649 244.780807,219.226532 219.121323,219.258820 
	C212.692795,219.266907 212.084381,219.870895 212.073792,226.537491 
	C212.043076,245.865372 212.059448,265.193359 212.100555,284.521179 
	C212.104172,286.218567 211.772690,288.064667 213.247009,290.011017 
	C218.653671,282.571777 223.848373,275.489319 228.964020,268.350189 
	C230.760391,265.843262 232.908035,264.326447 236.882874,265.136658 
z"/>
<path fill="#000000" opacity="0.95" stroke="none" 
	d="
M231.349792,251.129120 
	C225.529892,250.015564 222.552170,246.557068 221.815491,241.286209 
	C221.154861,236.559433 223.246078,232.812317 227.205643,230.378662 
	C231.254807,227.889923 235.420975,228.283569 239.340454,230.967667 
	C242.955582,233.443329 244.791199,238.915054 243.500153,243.296661 
	C241.999130,248.390869 238.292831,250.884918 231.349792,251.129120 
z"/>
</g>
</svg>

